<svg
  xmlns="http://www.w3.org/2000/svg"
  viewBox="0 0 280 280"
  width="256"
  height="256"
  role="img"
  aria-label="G3 icon refined"
>
  <path
    fill="#88C0D0"
    d="
      M42 52
      H152
      V70
      H60
      V210
      H130
      V174
      H98
      V156
      H152
      V228
      H42
      Z
    "
  />

  <path
    fill="#EBCB8B"
    d="
      M162 72
      H210
      C220 72 228 75 234 80
      C240 85 243 92 243 101
      C243 110 239 117 231 121
      C239 125 245 132 245 143
      C245 154 242 162 235 168
      C229 174 220 177 209 177
      H162
      V162
      H207
      C213 162 217 161 220 158
      C223 156 225 152 225 147
      C225 143 223 139 219 137
      C216 135 211 134 204 134
      H177
      V120
      H203
      C209 120 214 119 217 116
      C220 114 222 110 222 106
      C222 102 220 98 217 96
      C214 94 209 92 203 92
      H162
      V72
      Z
    "
  />
</svg>
